# xmcd CD database file
#
# Track frame offsets:
#	150
#	30992
#	63372
#	87284
#	105344
#	129951
#	152465
#	168536
#	191714
#	218510
#
# Disc length: 3313 seconds
#
# Revision: 0
# Processed by: cddbd v1.5.2PL0 Copyright (c) Steve Scherf et al.
# Submitted via: CDex 1.51
#
DISCID=720cef0a
DTITLE=Bright Moments - Introducing
DYEAR=2013
DGENRE=Jazz
TTITLE0=kumo
TTITLE1=around omni mic
TTITLE2=horns behind drums
TTITLE3=bcl solo
TTITLE4=close far close
TTITLE5=rounding
TTITLE6=tuba solo
TTITLE7=drum solo
TTITLE8=hot
TTITLE9=bernard hopkins
EXTD=YEAR: 2013
EXTT0=
EXTT1=
EXTT2=
EXTT3=
EXTT4=
EXTT5=
EXTT6=
EXTT7=
EXTT8=
EXTT9=
PLAYORDER=
